<svg xmlns="http://www.w3.org/2000/svg" width="512" height="512" viewBox="0 0 512 512" role="img" aria-labelledby="title desc">
  <title id="title">Build Hotspot Analyzer icon</title>
  <desc id="desc">Square icon with a simplified build telemetry mark optimized for small display sizes.</desc>
  <defs>
    <linearGradient id="ring" x1="0%" y1="8%" x2="100%" y2="92%">
      <stop offset="0%" stop-color="#2CC7C9"/>
      <stop offset="100%" stop-color="#1A73D9"/>
    </linearGradient>
    <linearGradient id="core" x1="0%" y1="0%" x2="0%" y2="100%">
      <stop offset="0%" stop-color="#FFB54D"/>
      <stop offset="100%" stop-color="#FF7A14"/>
    </linearGradient>
    <linearGradient id="bars" x1="0%" y1="0%" x2="0%" y2="100%">
      <stop offset="0%" stop-color="#95F1F1"/>
      <stop offset="100%" stop-color="#2893DB"/>
    </linearGradient>
    <filter id="glow" x="-25%" y="-25%" width="150%" height="150%">
      <feGaussianBlur stdDeviation="6" result="blur"/>
      <feMerge>
        <feMergeNode in="blur"/>
        <feMergeNode in="SourceGraphic"/>
      </feMerge>
    </filter>
  </defs>

  <rect x="26" y="26" width="460" height="460" rx="96" fill="#0F1724"/>

  <circle cx="256" cy="256" r="142" fill="none" stroke="url(#ring)" stroke-width="34"/>
  <circle cx="256" cy="252" r="76" fill="url(#core)" filter="url(#glow)"/>

  <rect x="154" y="310" width="28" height="68" rx="10" fill="url(#bars)"/>
  <rect x="196" y="284" width="28" height="94" rx="10" fill="url(#bars)"/>
  <rect x="238" y="258" width="28" height="120" rx="10" fill="url(#bars)"/>
  <rect x="280" y="286" width="28" height="92" rx="10" fill="url(#bars)"/>
  <rect x="322" y="268" width="28" height="110" rx="10" fill="url(#bars)"/>

  <path d="M134 226 H192 L220 184 L256 274 L294 206 L332 248 H390"
        fill="none"
        stroke="#E7FBFF"
        stroke-width="14"
        stroke-linecap="round"
        stroke-linejoin="round"/>
</svg>
